<svg width="127" height="19" viewBox="0 0 127 19" fill="none" xmlns="http://www.w3.org/2000/svg">
<path fill-rule="evenodd" clip-rule="evenodd" d="M8.59034 1.14941H118.156C122.422 1.14941 125.883 5.02976 125.883 9.82279C125.883 14.6148 122.422 18.4977 118.156 18.4977H8.79798C4.53365 18.4977 1.073 14.6148 1.073 9.82279C1.073 5.02976 4.53365 1.14941 8.79798 1.14941H8.59034Z" fill="white" stroke="#1B1A19" stroke-width="0.5"/>
<path fill-rule="evenodd" clip-rule="evenodd" d="M17.1596 10.9362C16.6417 14.2461 13.7448 16.8033 10.2458 16.8033C6.38177 16.8033 3.24976 13.7101 3.24976 9.89799C3.24976 6.08489 6.38177 2.99316 10.2458 2.99316C13.7448 2.99316 16.6432 5.53091 17.1616 8.83935H15.2176C14.7277 6.5751 12.6861 4.88028 10.2458 4.88028C7.4364 4.88028 5.15984 7.12709 5.15984 9.89799C5.15984 12.6684 7.4364 14.9187 10.2458 14.9187C12.7051 14.9187 14.7536 13.2244 15.2286 10.9362H17.1596Z" fill="#1B1A19"/>
<path fill-rule="evenodd" clip-rule="evenodd" d="M10.2455 12.2568C11.5661 12.2568 12.6356 11.1982 12.6356 9.89741C12.6356 8.59466 11.5661 7.5415 10.2455 7.5415C8.92799 7.5415 7.85693 8.59466 7.85693 9.89741C7.85693 11.1982 8.92799 12.2568 10.2455 12.2568Z" fill="#E26030"/>
<path fill-rule="evenodd" clip-rule="evenodd" d="M10.2455 12.8262C8.6073 12.8262 7.28031 11.514 7.28031 9.89789C7.28031 8.28229 8.6073 6.97156 10.2455 6.97156C11.8852 6.97156 13.2137 8.28229 13.2137 9.89789C13.2137 11.514 11.8852 12.8262 10.2455 12.8262ZM10.2455 5.42969C7.74339 5.42969 5.71729 7.42989 5.71729 9.89789C5.71729 12.3679 7.74339 14.3671 10.2455 14.3671C12.7461 14.3671 14.7747 12.3679 14.7747 9.89789C14.7747 7.42989 12.7461 5.42969 10.2455 5.42969Z" fill="#1B1A19"/>
<path fill-rule="evenodd" clip-rule="evenodd" d="M118.257 5.10083V5.51283H118.514C118.743 5.51283 119.054 5.5487 119.054 5.32302C119.054 5.11528 118.876 5.10083 118.674 5.10083H118.257ZM119.273 6.51617H118.998L118.567 5.75295H118.257V6.51617H118.013V4.85971H118.72C119.024 4.85971 119.298 4.94988 119.298 5.29811C119.298 5.62492 119.073 5.74349 118.85 5.75295L119.273 6.51617ZM117.336 5.67723C117.336 6.37269 117.906 6.90974 118.59 6.90974C119.273 6.90974 119.844 6.37269 119.844 5.67723C119.844 4.98027 119.273 4.44223 118.59 4.44223C117.906 4.44223 117.336 4.98027 117.336 5.67723ZM117.094 5.67723C117.094 4.85672 117.753 4.2041 118.59 4.2041C119.427 4.2041 120.086 4.85672 120.086 5.67723C120.086 6.49674 119.427 7.15036 118.59 7.15036C117.753 7.15036 117.094 6.49674 117.094 5.67723Z" fill="#1B1A19"/>
<path fill-rule="evenodd" clip-rule="evenodd" d="M28.2854 6.04297H24.9377V13.4181H33.2144V11.528H28.2854V6.04297Z" fill="#1B1A19"/>
<path fill-rule="evenodd" clip-rule="evenodd" d="M36.956 10.6073H41.8368V8.85272H36.956V7.93258H42.506V6.04297H33.6079V13.4181H42.8272V11.528H36.956V10.6073Z" fill="#1B1A19"/>
<path fill-rule="evenodd" clip-rule="evenodd" d="M71.0161 10.6073H75.8988V8.85272H71.0161V7.93258H76.5691V6.04297H67.6685V13.4181H76.8877V11.528H71.0161V10.6073Z" fill="#1B1A19"/>
<path fill-rule="evenodd" clip-rule="evenodd" d="M100.391 10.6073H105.274V8.85272H100.391V7.93258H105.947V6.04297H97.0483V13.4181H106.265V11.528H100.391V10.6073Z" fill="#1B1A19"/>
<path fill-rule="evenodd" clip-rule="evenodd" d="M51.7561 11.7547C50.1901 11.7547 49.6877 10.722 49.6877 9.7316C49.6877 8.73722 50.1901 7.70548 51.7561 7.70548C53.1414 7.70548 53.4451 8.52151 53.5059 8.79053H56.7609C56.4726 6.94077 54.8279 5.87865 51.8487 5.86719C48.5006 5.86719 46.3416 7.40857 46.3416 9.7316C46.3416 11.9092 48.3333 13.592 51.8487 13.592C55.0275 13.592 56.8077 12.0118 56.8077 10.5222H53.5198C53.3231 11.2197 52.8824 11.7547 51.7561 11.7547Z" fill="#1B1A19"/>
<path fill-rule="evenodd" clip-rule="evenodd" d="M83.5396 10.0623C83.5396 10.8151 83.5396 11.7546 82.0069 11.7546C80.4265 11.7546 80.4265 10.8151 80.4265 10.0623V6.04346H77.1799V10.5675C77.1799 12.612 78.7743 13.5929 81.9915 13.5929C85.2067 13.5929 86.7861 12.612 86.7861 10.5675V6.04346H83.5396V10.0623Z" fill="#1B1A19"/>
<path fill-rule="evenodd" clip-rule="evenodd" d="M93.8208 8.92603C92.2862 8.63659 90.7322 8.5225 90.6689 7.99592C90.6689 7.58144 91.4163 7.49973 91.8729 7.49973C92.2065 7.49973 92.59 7.54905 92.8613 7.68506C93.1352 7.8111 93.3179 7.99592 93.2582 8.27291H96.4231C96.3314 6.47597 94.2466 5.86719 91.8874 5.86719C89.6526 5.86719 87.506 6.60002 87.506 8.3043C87.506 9.79287 89.4709 10.1122 91.1873 10.4425C93.0605 10.8042 93.532 10.9083 93.532 11.2894C93.532 11.8374 92.6945 11.9605 92.1468 11.9605C91.5234 11.9605 90.7939 11.8683 90.5499 11.4244C90.4752 11.2894 90.4274 11.124 90.4274 10.9377H87.0818C87.1102 13.2956 90.6261 13.592 91.8575 13.592C94.2765 13.592 96.8787 12.9738 96.8787 11.0518C96.8787 9.69672 95.357 9.21448 93.8208 8.92603Z" fill="#1B1A19"/>
<path fill-rule="evenodd" clip-rule="evenodd" d="M106.349 6.04248V7.93209H109.117V13.4186H112.462V7.93209H115.117V6.04248H106.349Z" fill="#1B1A19"/>
<path fill-rule="evenodd" clip-rule="evenodd" d="M62.3918 9.26374H60.6401V7.79859H62.2086C63.4843 7.79859 63.8672 8.06511 63.8672 8.53092C63.8672 9.1935 63.0137 9.26374 62.3918 9.26374ZM65.0348 10.0838L65.0831 10.0823C65.2918 10.0608 65.5861 9.99956 65.5861 9.99956C66.695 9.71709 67.2128 8.91601 67.2128 8.14781C67.2128 6.75439 65.5711 6.04199 63.669 6.04199H57.2944V13.4181H60.6411V10.847H62.0288L63.6605 13.4829H67.1137L66.9907 13.2686L65.0348 10.0838Z" fill="#1B1A19"/>
</svg>
