<?xml version="1.0" standalone="no"?>
<!DOCTYPE svg PUBLIC "-//W3C//DTD SVG 20010904//EN"
 "http://www.w3.org/TR/2001/REC-SVG-20010904/DTD/svg10.dtd">
<svg version="1.0" xmlns="http://www.w3.org/2000/svg"
 width="2766.000000pt" height="1466.000000pt" viewBox="0 0 2766.000000 1466.000000"
 preserveAspectRatio="xMidYMid meet">

<g transform="translate(0.000000,1466.000000) scale(0.100000,-0.100000)"
fill="#000000" stroke="none">
<path d="M24400 14654 c-30 -2 -118 -11 -195 -20 -902 -100 -1653 -539 -2101
-1229 -224 -344 -353 -694 -426 -1155 l-23 -145 0 -1690 c0 -1874 -3 -1765 66
-2087 141 -653 495 -1216 1003 -1597 290 -218 681 -400 1048 -490 444 -109
957 -130 1443 -60 955 137 1716 658 2122 1454 163 321 259 649 305 1050 19
159 19 3281 0 3440 -65 564 -240 1023 -545 1428 -340 452 -829 785 -1412 963
-142 44 -414 99 -585 119 -129 15 -581 27 -700 19z m589 -1030 c517 -78 923
-329 1202 -743 154 -228 243 -474 291 -806 10 -71 13 -426 13 -1690 0 -1495
-1 -1608 -18 -1715 -67 -427 -215 -729 -491 -1006 -149 -148 -293 -251 -466
-333 -378 -177 -861 -227 -1315 -136 -166 34 -288 75 -440 150 -437 217 -750
607 -875 1090 -68 262 -64 159 -68 1870 -2 1074 0 1590 8 1680 21 253 80 482
176 685 87 182 174 309 313 453 298 311 680 481 1166 521 97 8 401 -4 504 -20z"/>
<path d="M49 14635 c-15 -8 -32 -29 -38 -46 -8 -23 -11 -1180 -11 -4198 0
-4109 0 -4166 20 -4198 13 -21 31 -35 57 -42 50 -14 3035 -15 3288 -1 676 37
1193 209 1639 544 447 336 710 798 792 1391 28 199 26 620 -4 812 -114 730
-477 1229 -1129 1550 -84 41 -155 78 -158 83 -13 22 17 45 139 103 236 114
399 227 561 392 358 362 521 839 502 1469 -23 780 -310 1341 -879 1716 -362
240 -850 388 -1413 430 -88 6 -731 10 -1740 10 -1371 -1 -1604 -3 -1626 -15z
m3271 -1005 c380 -47 667 -176 890 -400 228 -228 339 -496 356 -860 14 -296
-45 -554 -175 -766 -167 -270 -442 -464 -787 -555 -241 -63 -218 -62 -1362
-66 -789 -3 -1047 -1 -1058 8 -12 10 -14 205 -14 1324 0 721 3 1315 7 1318 11
12 2049 8 2143 -3z m4 -3630 c414 -40 724 -176 965 -425 193 -200 303 -431
347 -727 22 -154 15 -480 -15 -616 -81 -377 -287 -669 -604 -856 -161 -96
-340 -156 -569 -193 -90 -14 -239 -17 -1170 -20 -759 -3 -1073 -1 -1088 7 -20
11 -20 11 -20 1413 0 1078 3 1406 12 1415 16 16 1978 17 2142 2z"/>
<path d="M7239 14621 l-29 -29 0 -4191 0 -4191 29 -32 29 -33 479 -3 c263 -2
498 0 522 3 29 5 54 16 73 35 l28 28 0 1831 c0 1650 2 1831 16 1845 14 14 110
16 907 16 491 0 898 -4 905 -8 7 -5 400 -836 873 -1848 473 -1011 870 -1849
882 -1862 11 -12 37 -26 56 -32 22 -6 233 -10 529 -10 405 0 499 3 527 14 38
16 51 46 42 99 -3 18 -404 857 -892 1866 -487 1009 -885 1841 -883 1850 2 11
58 34 184 76 603 200 1024 558 1285 1090 140 288 205 548 231 923 25 370 -31
794 -148 1109 -234 636 -699 1097 -1339 1331 -133 49 -321 96 -498 125 -131
21 -141 21 -1955 24 l-1823 4 -30 -30z m3564 -1009 c282 -63 478 -165 662
-343 291 -282 418 -634 402 -1119 -7 -194 -26 -310 -78 -457 -138 -391 -447
-683 -846 -802 -224 -66 -193 -65 -1417 -68 -994 -4 -1110 -2 -1132 12 l-24
15 0 1383 c0 1082 3 1386 12 1395 10 10 263 12 1168 10 1154 -3 1155 -3 1253
-26z"/>
<path d="M14633 14638 c-12 -6 -29 -25 -37 -43 -14 -30 -16 -454 -16 -4197 0
-3943 1 -4165 18 -4198 11 -24 28 -39 52 -47 46 -16 5445 -18 5502 -3 20 6 46
22 58 37 19 25 20 38 20 455 0 465 -1 471 -55 496 -20 9 -537 12 -2206 12
-1484 0 -2186 3 -2200 10 -19 11 -19 36 -19 1370 0 747 3 1365 6 1374 6 15
147 16 1503 16 878 0 1513 4 1536 10 22 5 50 21 63 35 l22 26 0 439 0 439 -24
28 -24 28 -1531 5 c-1052 3 -1533 8 -1541 16 -7 7 -9 421 -8 1350 l3 1339
2200 5 c1767 4 2204 8 2223 18 54 31 53 24 50 500 l-3 441 -23 23 -23 23
-2762 2 c-1936 1 -2769 -1 -2784 -9z"/>
<path d="M13635 4313 c-74 -40 -1762 -1016 -1774 -1027 -8 -6 -22 -29 -32 -51
-18 -38 -19 -95 -19 -1060 0 -639 4 -1033 10 -1055 5 -20 24 -50 42 -66 18
-17 429 -260 913 -539 662 -382 890 -509 921 -512 29 -4 52 1 84 17 23 12 428
244 899 516 536 309 868 507 888 528 24 26 33 46 38 87 3 30 5 507 3 1060 l-3
1006 -25 37 c-21 32 -154 112 -924 557 -835 481 -903 519 -945 519 -25 -1 -59
-8 -76 -17z m792 -725 c392 -227 710 -415 705 -419 -14 -14 -1413 -819 -1423
-819 -10 0 -1407 805 -1422 819 -6 6 1405 830 1422 831 2 0 325 -185 718 -412z
m-1636 -1069 c354 -205 706 -408 781 -452 l137 -79 483 280 c848 490 1077 622
1093 628 13 5 15 -78 15 -730 0 -405 -2 -736 -4 -736 -2 0 -219 124 -482 277
-264 152 -483 276 -489 276 -14 0 -295 -164 -295 -172 0 -4 250 -151 555 -326
305 -176 554 -322 554 -325 0 -3 -322 -190 -715 -417 l-715 -411 -714 411
c-393 227 -714 414 -714 417 -1 3 249 149 554 325 305 176 555 322 555 325 0
3 -67 44 -149 91 l-150 86 -482 -278 c-265 -154 -484 -279 -486 -279 -2 0 -3
331 -3 736 0 626 2 735 14 731 8 -3 304 -173 657 -378z"/>
<path d="M7380 2166 l0 -1716 618 0 c759 0 925 10 1142 71 468 129 697 451
678 949 -7 156 -33 261 -98 395 -56 114 -124 203 -210 273 -66 53 -183 115
-254 134 -25 7 -46 15 -46 18 1 3 33 20 73 38 238 108 379 348 394 667 11 240
-41 410 -175 564 -92 107 -282 207 -488 257 -223 54 -270 57 -976 61 l-658 5
0 -1716z m1259 1373 c371 -35 557 -165 606 -425 30 -152 11 -326 -46 -442 -59
-120 -179 -206 -344 -248 -61 -15 -136 -18 -567 -21 l-498 -4 0 575 0 576 368
0 c202 0 418 -5 481 -11z m120 -1449 c334 -35 534 -172 618 -424 24 -73 27
-95 27 -231 0 -136 -3 -158 -27 -230 -49 -149 -138 -249 -282 -321 -191 -94
-348 -114 -914 -114 l-391 0 0 665 0 665 434 0 c239 0 479 -5 535 -10z"/>
<path d="M17461 3833 c77 -113 997 -1445 1045 -1514 l53 -76 -596 -884 c-327
-486 -598 -890 -600 -897 -4 -10 40 -12 218 -10 l223 3 508 774 c279 426 510
776 512 778 2 2 225 -348 496 -777 l494 -780 233 0 c185 0 233 3 227 13 -5 6
-264 406 -578 887 -313 481 -570 882 -570 890 0 11 1058 1539 1127 1628 7 9
-36 12 -209 12 l-219 0 -489 -685 c-268 -377 -491 -685 -495 -685 -4 0 -214
308 -467 685 l-458 685 -244 0 -243 0 32 -47z"/>
</g>
</svg>
